<svg width="16" height="17" viewBox="0 0 16 17" fill="none" xmlns="http://www.w3.org/2000/svg">
<path d="M3.8 10.3H3.2C2.88174 10.3 2.57651 10.1736 2.35147 9.94853C2.12643 9.72347 2 9.41827 2 9.1V3.7C2 3.38174 2.12643 3.07651 2.35147 2.85147C2.57651 2.62643 2.88174 2.5 3.2 2.5H8.6C8.91827 2.5 9.22347 2.62643 9.44853 2.85147C9.6736 3.07651 9.8 3.38174 9.8 3.7V4.3M7.4 6.7H12.8C13.4627 6.7 14 7.23727 14 7.9V13.3C14 13.9627 13.4627 14.5 12.8 14.5H7.4C6.73727 14.5 6.2 13.9627 6.2 13.3V7.9C6.2 7.23727 6.73727 6.7 7.4 6.7Z" stroke="#3555FF" stroke-width="1.33333" stroke-linecap="round" stroke-linejoin="round"/>
</svg>
