<svg width="16" height="16" viewBox="0 0 16 16" fill="none" xmlns="http://www.w3.org/2000/svg">
<path d="M4.60016 1.33325H7.40016C9.32086 1.33325 10.2885 1.97018 10.5709 3.49252C10.6725 4.04009 10.2052 4.49992 9.64825 4.49992H8.60016C5.80016 4.49992 4.50016 5.79992 4.50016 8.59992V9.64801C4.50016 10.2049 4.04033 10.6723 3.49276 10.5707C1.97042 10.2882 1.33349 9.32062 1.33349 7.39992V4.59992C1.33349 2.26659 2.26682 1.33325 4.60016 1.33325Z" fill="#3555FF"/>
<path d="M11.3977 5.33325H8.59772C6.26439 5.33325 5.33105 6.26658 5.33105 8.59992V11.3999C5.33105 13.7333 6.26439 14.6666 8.59772 14.6666H11.3977C13.7311 14.6666 14.6644 13.7333 14.6644 11.3999V8.59992C14.6644 6.26658 13.7311 5.33325 11.3977 5.33325ZM12.1911 9.09992L9.71772 11.5733C9.62439 11.6666 9.50439 11.7133 9.37772 11.7133C9.25105 11.7133 9.13105 11.6666 9.03772 11.5733L7.79772 10.3333C7.61105 10.1466 7.61105 9.84658 7.79772 9.65992C7.98439 9.47325 8.28439 9.47325 8.47105 9.65992L9.37105 10.5599L11.5111 8.41992C11.6977 8.23325 11.9977 8.23325 12.1844 8.41992C12.3711 8.60659 12.3777 8.91325 12.1911 9.09992Z" fill="#3555FF"/>
</svg>
