<svg width="32" height="32" viewBox="0 0 32 32" fill="none" xmlns="http://www.w3.org/2000/svg">
<circle cx="16" cy="16" r="16" fill="#2C2D54"/>
<g clip-path="url(#clip0_3745_19684)">
<path fill-rule="evenodd" clip-rule="evenodd" d="M22.1193 8.23438C23.0714 8.23438 23.8465 9.03234 23.8465 10.0211V25.5814L22.035 23.9334L21.0155 22.962L19.937 21.9298L20.3836 23.5344H10.8288C9.87673 23.5344 9.10156 22.7365 9.10156 21.7477V10.0211C9.10156 9.03234 9.87673 8.23438 10.8288 8.23438L22.1193 8.23438ZM18.8669 19.562C20.729 19.5013 21.4452 18.2436 21.4452 18.2436C21.4452 15.4507 20.2319 13.1869 20.2319 13.1869C19.0186 12.2502 17.8643 12.2762 17.8643 12.2762L17.7463 12.415C19.1787 12.866 19.8443 13.5165 19.8443 13.5165C18.968 13.0221 18.1086 12.7793 17.3082 12.6839C16.7015 12.6145 16.1202 12.6318 15.6062 12.7012L15.463 12.7186C15.1681 12.7446 14.4519 12.8574 13.5503 13.265C13.2386 13.4125 13.0532 13.5165 13.0532 13.5165C13.0532 13.5165 13.7525 12.8313 15.2692 12.3803L15.1849 12.2762C15.1849 12.2762 14.0306 12.2502 12.8173 13.1869C12.8173 13.1869 11.604 15.4507 11.604 18.2436C11.604 18.2436 12.3117 19.5013 14.1738 19.562C14.1738 19.562 14.4856 19.1717 14.7383 18.8421C13.6683 18.5125 13.2639 17.8186 13.2639 17.8186L13.4998 17.966L13.5335 17.9921L13.5665 18.0116L13.5763 18.0159L13.6093 18.0354C13.8199 18.1569 14.0306 18.2523 14.2244 18.3303C14.5698 18.4691 14.9827 18.6079 15.463 18.7033C16.0949 18.8247 16.8363 18.8681 17.6452 18.712C18.0412 18.6426 18.4457 18.5211 18.8669 18.339C19.1618 18.2263 19.4904 18.0615 19.8359 17.8273C19.8359 17.8273 19.4146 18.5385 18.3108 18.8594C18.5636 19.189 18.8669 19.562 18.8669 19.562ZM14.949 15.5114C14.4687 15.5114 14.0896 15.9451 14.0896 16.4742C14.0896 17.0033 14.4772 17.437 14.949 17.437C15.4293 17.437 15.8084 17.0033 15.8084 16.4742C15.8168 15.9451 15.4293 15.5114 14.949 15.5114ZM18.0244 15.5114C17.5441 15.5114 17.1649 15.9451 17.1649 16.4742C17.1649 17.0033 17.5525 17.437 18.0244 17.437C18.5046 17.437 18.8838 17.0033 18.8838 16.4742C18.8838 15.9451 18.5046 15.5114 18.0244 15.5114Z" fill="white"/>
</g>
<defs>
<clipPath id="clip0_3745_19684">
<rect width="21" height="21" fill="white" transform="translate(5.5 5.5)"/>
</clipPath>
</defs>
</svg>
